<svg width="14" height="18" viewBox="0 0 14 18" fill="none" xmlns="http://www.w3.org/2000/svg">
<path d="M2 8.5L10.5324 1.8637C10.8355 1.62798 11.2085 1.5 11.5924 1.5H11.691C11.8942 1.5 12.0946 1.54731 12.2764 1.6382V1.6382C12.7199 1.85993 13 2.3132 13 2.80902V3.5V5.5V11V14.691C13 15.1868 12.7199 15.6401 12.2764 15.8618V15.8618C12.0946 15.9527 11.8942 16 11.691 16H11.5977C11.2108 16 10.8354 15.8683 10.5332 15.6266L8.5 14L6 12L1.5 8.5M2 8.5L3 8.75L1.5 8.5M2 8.5L1 8M1.5 8.5L1 9.5M1 8V7V3M1 8V9M1 9.5V9M1 9.5V16.5M1 1V3M1 3V9M9 3.5L10.7969 3.14063C11.212 3.0576 11.6313 3.26269 11.8207 3.64135L11.8383 3.67655C12.1423 4.28459 11.7001 5 11.0203 5V5C10.1155 5 9.76023 6.17349 10.5131 6.67538L10.7481 6.83208C10.9039 6.93592 11.1033 6.94833 11.2708 6.86462V6.86462C11.6113 6.69436 11.6606 6.22851 11.3634 5.99068L10.4104 5.22828C9.89209 4.81367 9.1585 4.8784 8.60464 5.24411C8.37856 5.39338 8.15996 5.5 8 5.5V5.5C7.21737 5.5 7.21761 6.85475 6.55727 7.27482C6.34823 7.40779 6.14876 7.5 6 7.5C5.5 7.5 5.5 7.5 5 8C4.5 8.5 4 8.5 4 8.75C4 8.89903 3.79249 8.60385 3.79264 8.5M7.5 11.1181C7.21301 10.9397 7 10.8264 7 10.5C7 10 6.5 10.5 6.5 10C6.5 9.5 5 9.5 4.20803 8.75C3.88818 8.44709 3.79275 8.42964 3.79264 8.5M7.5 11.1181C7.6527 11.213 7.82635 11.3264 8 11.5C8.5 12 9 11.5 9 12C9 12.3969 10.3125 13.4828 10.9842 13.9881C10.995 13.9962 11.0048 14.0048 11.0143 14.0143V14.0143C11.1935 14.1935 11.5 14.0666 11.5 13.8131V13.7038C11.5 13.5789 11.5718 13.4666 11.6765 13.3985C11.9925 13.1929 12.3348 12.8348 12 12.5C11.7954 12.2954 11.6693 11.8205 11.5949 11.3161C11.4716 10.4796 11.7674 10.1979 11.5 11V11C11 12.5 11 13.5 11 13C11 12.5 10.5 7.5 10.5 11C10.5 11.7817 10.5779 12.4257 10.7012 12.9516C10.9929 14.1962 12.1023 13.7723 12.2085 12.4984L12.4515 9.58165C12.4728 9.32663 12 9.2559 12 9V9C12 8.8 12 7.91667 12 7.5C12 7.33333 11.9 7.1 11.5 7.5C11.3275 7.67252 11.0247 8.22329 10.6961 8.88753C9.91407 10.4681 5.86954 11.7899 7.5 11.1181V11.1181ZM9 9C5.5 10 4 8.5 5.5 8.5C7 8.5 4 9.5 6 8.5C8 7.5 8.5 5.5 9 6C9.5 6.5 9 6 9 6.5C9 7 12.5 5.5 10.5 7C8.5 8.5 4.5 9 7.5 8.5V8.5C7.9218 8.4297 10.7443 8.02013 10.3462 8.17635C10.1109 8.26867 9.83075 8.37597 9.5 8.5C5.5 10 6.5 9 6 9.5C5.5 10 3.79264 8.5 3.79264 8.5" stroke="#5E6E82" stroke-width="2" stroke-linecap="round"/>
</svg>
