<svg width="14" height="18" viewBox="0 0 14 18" fill="none" xmlns="http://www.w3.org/2000/svg">
<path d="M12 8.5L3.46762 1.8637C3.16454 1.62798 2.79155 1.5 2.40759 1.5H2.30902C2.1058 1.5 1.90537 1.54731 1.72361 1.6382V1.6382C1.28013 1.85993 1 2.3132 1 2.80902V3.5V5.5V11V14.691C1 15.1868 1.28013 15.6401 1.72361 15.8618V15.8618C1.90537 15.9527 2.1058 16 2.30902 16H2.40226C2.7892 16 3.16461 15.8683 3.46675 15.6266L5.5 14L8 12L12.5 8.5M12 8.5L11 8.75L12.5 8.5M12 8.5L13 8M12.5 8.5L13 9.5M13 8V7V3M13 8V9M13 9.5V9M13 9.5V16.5M13 1V3M13 3V9M5 3.5L3.20313 3.14063C2.788 3.0576 2.36865 3.26269 2.17932 3.64135L2.16173 3.67655C1.85771 4.28459 2.29985 5 2.97967 5V5C3.88446 5 4.23977 6.17349 3.48693 6.67538L3.25189 6.83208C3.09613 6.93592 2.89667 6.94833 2.72923 6.86462V6.86462C2.38872 6.69436 2.33937 6.22851 2.63665 5.99068L3.58965 5.22828C4.10791 4.81367 4.8415 4.8784 5.39536 5.24411C5.62144 5.39338 5.84004 5.5 6 5.5V5.5C6.78263 5.5 6.78239 6.85475 7.44273 7.27482C7.65177 7.40779 7.85124 7.5 8 7.5C8.5 7.5 8.5 7.5 9 8C9.5 8.5 10 8.5 10 8.75C10 8.89903 10.2075 8.60385 10.2074 8.5M6.5 11.1181C6.78699 10.9397 7 10.8264 7 10.5C7 10 7.5 10.5 7.5 10C7.5 9.5 9 9.5 9.79197 8.75C10.1118 8.44709 10.2073 8.42964 10.2074 8.5M6.5 11.1181C6.3473 11.213 6.17365 11.3264 6 11.5C5.5 12 5 11.5 5 12C5 12.3969 3.68747 13.4828 3.01579 13.9881C3.00503 13.9962 2.99522 14.0048 2.9857 14.0143V14.0143C2.80647 14.1935 2.5 14.0666 2.5 13.8131V13.7038C2.5 13.5789 2.42817 13.4666 2.32347 13.3985C2.00753 13.1929 1.66524 12.8348 2 12.5C2.20459 12.2954 2.3307 11.8205 2.40509 11.3161C2.52844 10.4796 2.23263 10.1979 2.5 11V11C3 12.5 3 13.5 3 13C3 12.5 3.5 7.5 3.5 11C3.5 11.7817 3.42206 12.4257 3.29881 12.9516C3.00713 14.1962 1.89769 13.7723 1.79153 12.4984L1.54847 9.58165C1.52722 9.32663 2 9.2559 2 9V9C2 8.8 2 7.91667 2 7.5C2 7.33333 2.1 7.1 2.5 7.5C2.67252 7.67252 2.97526 8.22329 3.30391 8.88753C4.08593 10.4681 8.13046 11.7899 6.5 11.1181V11.1181ZM5 9C8.5 10 10 8.5 8.5 8.5C7 8.5 10 9.5 8 8.5C6 7.5 5.5 5.5 5 6C4.5 6.5 5 6 5 6.5C5 7 1.5 5.5 3.5 7C5.5 8.5 9.5 9 6.5 8.5V8.5C6.0782 8.4297 3.25575 8.02013 3.65381 8.17635C3.88906 8.26867 4.16925 8.37597 4.5 8.5C8.5 10 7.5 9 8 9.5C8.5 10 10.2074 8.5 10.2074 8.5" stroke="#5E6E82" stroke-width="2" stroke-linecap="round"/>
</svg>
